<svg xmlns="http://www.w3.org/2000/svg" xmlns:xlink="http://www.w3.org/1999/xlink" version="1.1" class="marks" width="650" height="227" viewBox="0 0 650 227"><g fill="none" stroke-miterlimit="10" transform="translate(45,5)"><g class="mark-group role-frame root" role="graphics-object" aria-roledescription="group mark container"><g transform="translate(0,0)"><path class="background" aria-hidden="true" d="M0,0h500v200h-500Z"/><g><g class="mark-group role-axis" role="graphics-symbol" aria-roledescription="axis" aria-label="X-axis for a discrete scale with 31 values: 1989, 1990, 1991, 1992, 1993, ending with 2019"><g transform="translate(0.5,200.5)"><path class="background" aria-hidden="true" d="M0,0h0v0h0Z" pointer-events="none"/><g><g class="mark-rule role-axis-tick" pointer-events="none"><line transform="translate(0,0)" x2="0" y2="5" stroke="#888" stroke-width="1" opacity="1"/><line transform="translate(17,0)" x2="0" y2="5" stroke="#888" stroke-width="1" opacity="1"/><line transform="translate(33,0)" x2="0" y2="5" stroke="#888" stroke-width="1" opacity="1"/><line transform="translate(50,0)" x2="0" y2="5" stroke="#888" stroke-width="1" opacity="1"/><line transform="translate(67,0)" x2="0" y2="5" stroke="#888" stroke-width="1" opacity="1"/><line transform="translate(83,0)" x2="0" y2="5" stroke="#888" stroke-width="1" opacity="1"/><line transform="translate(100,0)" x2="0" y2="5" stroke="#888" stroke-width="1" opacity="1"/><line transform="translate(117,0)" x2="0" y2="5" stroke="#888" stroke-width="1" opacity="1"/><line transform="translate(133,0)" x2="0" y2="5" stroke="#888" stroke-width="1" opacity="1"/><line transform="translate(150,0)" x2="0" y2="5" stroke="#888" stroke-width="1" opacity="1"/><line transform="translate(167,0)" x2="0" y2="5" stroke="#888" stroke-width="1" opacity="1"/><line transform="translate(183,0)" x2="0" y2="5" stroke="#888" stroke-width="1" opacity="1"/><line transform="translate(200,0)" x2="0" y2="5" stroke="#888" stroke-width="1" opacity="1"/><line transform="translate(217,0)" x2="0" y2="5" stroke="#888" stroke-width="1" opacity="1"/><line transform="translate(233,0)" x2="0" y2="5" stroke="#888" stroke-width="1" opacity="1"/><line transform="translate(250,0)" x2="0" y2="5" stroke="#888" stroke-width="1" opacity="1"/><line transform="translate(267,0)" x2="0" y2="5" stroke="#888" stroke-width="1" opacity="1"/><line transform="translate(283,0)" x2="0" y2="5" stroke="#888" stroke-width="1" opacity="1"/><line transform="translate(300,0)" x2="0" y2="5" stroke="#888" stroke-width="1" opacity="1"/><line transform="translate(317,0)" x2="0" y2="5" stroke="#888" stroke-width="1" opacity="1"/><line transform="translate(333,0)" x2="0" y2="5" stroke="#888" stroke-width="1" opacity="1"/><line transform="translate(350,0)" x2="0" y2="5" stroke="#888" stroke-width="1" opacity="1"/><line transform="translate(367,0)" x2="0" y2="5" stroke="#888" stroke-width="1" opacity="1"/><line transform="translate(383,0)" x2="0" y2="5" stroke="#888" stroke-width="1" opacity="1"/><line transform="translate(400,0)" x2="0" y2="5" stroke="#888" stroke-width="1" opacity="1"/><line transform="translate(417,0)" x2="0" y2="5" stroke="#888" stroke-width="1" opacity="1"/><line transform="translate(433,0)" x2="0" y2="5" stroke="#888" stroke-width="1" opacity="1"/><line transform="translate(450,0)" x2="0" y2="5" stroke="#888" stroke-width="1" opacity="1"/><line transform="translate(467,0)" x2="0" y2="5" stroke="#888" stroke-width="1" opacity="1"/><line transform="translate(483,0)" x2="0" y2="5" stroke="#888" stroke-width="1" opacity="1"/><line transform="translate(500,0)" x2="0" y2="5" stroke="#888" stroke-width="1" opacity="1"/></g><g class="mark-text role-axis-label" pointer-events="none"><text text-anchor="middle" transform="translate(-2.842170943040401e-14,15)" font-family="sans-serif" font-size="10px" fill="#000" opacity="1">1989</text><text text-anchor="middle" transform="translate(16.66666666666664,15)" font-family="sans-serif" font-size="10px" fill="#000" opacity="0">1990</text><text text-anchor="middle" transform="translate(33.33333333333331,15)" font-family="sans-serif" font-size="10px" fill="#000" opacity="1">1991</text><text text-anchor="middle" transform="translate(49.99999999999997,15)" font-family="sans-serif" font-size="10px" fill="#000" opacity="0">1992</text><text text-anchor="middle" transform="translate(66.66666666666664,15)" font-family="sans-serif" font-size="10px" fill="#000" opacity="1">1993</text><text text-anchor="middle" transform="translate(83.33333333333331,15)" font-family="sans-serif" font-size="10px" fill="#000" opacity="0">1994</text><text text-anchor="middle" transform="translate(99.99999999999997,15)" font-family="sans-serif" font-size="10px" fill="#000" opacity="1">1995</text><text text-anchor="middle" transform="translate(116.66666666666664,15)" font-family="sans-serif" font-size="10px" fill="#000" opacity="0">1996</text><text text-anchor="middle" transform="translate(133.33333333333331,15)" font-family="sans-serif" font-size="10px" fill="#000" opacity="1">1997</text><text text-anchor="middle" transform="translate(149.99999999999997,15)" font-family="sans-serif" font-size="10px" fill="#000" opacity="0">1998</text><text text-anchor="middle" transform="translate(166.66666666666666,15)" font-family="sans-serif" font-size="10px" fill="#000" opacity="1">1999</text><text text-anchor="middle" transform="translate(183.33333333333331,15)" font-family="sans-serif" font-size="10px" fill="#000" opacity="0">2000</text><text text-anchor="middle" transform="translate(199.99999999999997,15)" font-family="sans-serif" font-size="10px" fill="#000" opacity="1">2001</text><text text-anchor="middle" transform="translate(216.66666666666666,15)" font-family="sans-serif" font-size="10px" fill="#000" opacity="0">2002</text><text text-anchor="middle" transform="translate(233.33333333333331,15)" font-family="sans-serif" font-size="10px" fill="#000" opacity="1">2003</text><text text-anchor="middle" transform="translate(250,15)" font-family="sans-serif" font-size="10px" fill="#000" opacity="0">2004</text><text text-anchor="middle" transform="translate(266.66666666666663,15)" font-family="sans-serif" font-size="10px" fill="#000" opacity="1">2005</text><text text-anchor="middle" transform="translate(283.33333333333337,15)" font-family="sans-serif" font-size="10px" fill="#000" opacity="0">2006</text><text text-anchor="middle" transform="translate(300,15)" font-family="sans-serif" font-size="10px" fill="#000" opacity="1">2007</text><text text-anchor="middle" transform="translate(316.66666666666663,15)" font-family="sans-serif" font-size="10px" fill="#000" opacity="0">2008</text><text text-anchor="middle" transform="translate(333.33333333333337,15)" font-family="sans-serif" font-size="10px" fill="#000" opacity="1">2009</text><text text-anchor="middle" transform="translate(350,15)" font-family="sans-serif" font-size="10px" fill="#000" opacity="0">2010</text><text text-anchor="middle" transform="translate(366.66666666666663,15)" font-family="sans-serif" font-size="10px" fill="#000" opacity="1">2011</text><text text-anchor="middle" transform="translate(383.33333333333337,15)" font-family="sans-serif" font-size="10px" fill="#000" opacity="0">2012</text><text text-anchor="middle" transform="translate(400,15)" font-family="sans-serif" font-size="10px" fill="#000" opacity="1">2013</text><text text-anchor="middle" transform="translate(416.66666666666663,15)" font-family="sans-serif" font-size="10px" fill="#000" opacity="0">2014</text><text text-anchor="middle" transform="translate(433.33333333333337,15)" font-family="sans-serif" font-size="10px" fill="#000" opacity="1">2015</text><text text-anchor="middle" transform="translate(450,15)" font-family="sans-serif" font-size="10px" fill="#000" opacity="0">2016</text><text text-anchor="middle" transform="translate(466.66666666666663,15)" font-family="sans-serif" font-size="10px" fill="#000" opacity="1">2017</text><text text-anchor="middle" transform="translate(483.33333333333337,15)" font-family="sans-serif" font-size="10px" fill="#000" opacity="0">2018</text><text text-anchor="middle" transform="translate(500,15)" font-family="sans-serif" font-size="10px" fill="#000" opacity="1">2019</text></g><g class="mark-rule role-axis-domain" pointer-events="none"><line transform="translate(0,0)" x2="500" y2="0" stroke="#888" stroke-width="1" opacity="1"/></g></g><path class="foreground" aria-hidden="true" d="" pointer-events="none" display="none"/></g></g><g class="mark-group role-axis" role="graphics-symbol" aria-roledescription="axis" aria-label="Y-axis for a linear scale with values from 18,000 to 46,000"><g transform="translate(0.5,0.5)"><path class="background" aria-hidden="true" d="M0,0h0v0h0Z" pointer-events="none"/><g><g class="mark-rule role-axis-tick" pointer-events="none"><line transform="translate(0,186)" x2="-5" y2="0" stroke="#888" stroke-width="1" opacity="1"/><line transform="translate(0,150)" x2="-5" y2="0" stroke="#888" stroke-width="1" opacity="1"/><line transform="translate(0,114)" x2="-5" y2="0" stroke="#888" stroke-width="1" opacity="1"/><line transform="translate(0,79)" x2="-5" y2="0" stroke="#888" stroke-width="1" opacity="1"/><line transform="translate(0,43)" x2="-5" y2="0" stroke="#888" stroke-width="1" opacity="1"/><line transform="translate(0,7)" x2="-5" y2="0" stroke="#888" stroke-width="1" opacity="1"/></g><g class="mark-text role-axis-label" pointer-events="none"><text text-anchor="end" transform="translate(-7,188.71428571428572)" font-family="sans-serif" font-size="10px" fill="#000" opacity="1">20,000</text><text text-anchor="end" transform="translate(-7,153)" font-family="sans-serif" font-size="10px" fill="#000" opacity="1">25,000</text><text text-anchor="end" transform="translate(-7,117.28571428571428)" font-family="sans-serif" font-size="10px" fill="#000" opacity="1">30,000</text><text text-anchor="end" transform="translate(-7,81.57142857142858)" font-family="sans-serif" font-size="10px" fill="#000" opacity="1">35,000</text><text text-anchor="end" transform="translate(-7,45.85714285714286)" font-family="sans-serif" font-size="10px" fill="#000" opacity="1">40,000</text><text text-anchor="end" transform="translate(-7,10.142857142857139)" font-family="sans-serif" font-size="10px" fill="#000" opacity="1">45,000</text></g><g class="mark-rule role-axis-domain" pointer-events="none"><line transform="translate(0,200)" x2="0" y2="-200" stroke="#888" stroke-width="1" opacity="1"/></g></g><path class="foreground" aria-hidden="true" d="" pointer-events="none" display="none"/></g></g><g class="mark-group role-scope" role="graphics-object" aria-roledescription="group mark container"><g transform="translate(0,0)"><path class="background" aria-hidden="true" d="M0,0h0v0h0Z"/><g><g class="mark-line role-mark" role="graphics-symbol" aria-roledescription="line mark container"><path d="M-2.842170943040401e-14,137.43280114285713L16.66666666666664,132.34690571428573L33.33333333333331,118.95312107142857L49.99999999999997,125.92531092857142L66.66666666666664,122.87556L83.33333333333331,127.47555235714287L99.99999999999997,117.69125364285715L116.66666666666664,100.23238549999999L133.33333333333331,105.13733764285713L149.99999999999997,98.8461395L166.66666666666666,97.24873685714286L183.33333333333331,97.07573657142856L199.99999999999997,83.49443142857143L216.66666666666666,82.73422271428572L233.33333333333331,70.86788114285716L250,68.76632800000002L266.66666666666663,62.840168571428556L283.33333333333337,62.90216985714287L300,67.76541750000003L316.66666666666663,68.1226157857143L333.33333333333337,76.61544450000002L350,64.15039478571427L366.66666666666663,73.43180207142859L383.33333333333337,73.89701785714284L400,70.00712521428571L416.66666666666663,82.37039464285714L433.33333333333337,78.40717021428571L450,73.90284178571429L466.66666666666663,71.77363028571429L483.33333333333337,76.5056254285714L500,74.77589514285714" stroke="#e45756" stroke-width="2"/></g><g class="mark-line role-mark" role="graphics-symbol" aria-roledescription="line mark container"><path d="M-2.842170943040401e-14,137.43280114285713L16.66666666666664,132.34690571428573L33.33333333333331,118.95312107142857L49.99999999999997,125.92531092857142L66.66666666666664,122.87556L83.33333333333331,127.47555235714287L99.99999999999997,117.69125364285715L116.66666666666664,100.23238549999999L133.33333333333331,105.13733764285713L149.99999999999997,98.8461395L166.66666666666666,97.24873685714286L183.33333333333331,97.07573657142856L199.99999999999997,83.49443142857143L216.66666666666666,82.73422271428572L233.33333333333331,70.86788114285716L250,68.76632800000002L266.66666666666663,62.840168571428556L283.33333333333337,62.90216985714287L300,67.76541750000003L316.66666666666663,68.1226157857143L333.33333333333337,76.61544450000002L350,64.15039478571427L366.66666666666663,73.43180207142859L383.33333333333337,73.89701785714284L400,70.00712521428571L416.66666666666663,82.37039464285714L433.33333333333337,78.40717021428571L450,73.90284178571429L466.66666666666663,71.77363028571429L483.33333333333337,76.5056254285714L500,74.77589514285714" stroke="#e45756" stroke-width="2.5"/></g></g><path class="foreground" aria-hidden="true" d="" display="none"/></g><g transform="translate(0,0)"><path class="background" aria-hidden="true" d="M0,0h0v0h0Z"/><g><g class="mark-line role-mark" role="graphics-symbol" aria-roledescription="line mark container"><path d="M-2.842170943040401e-14,195.501897L16.66666666666664,195.72239057142858L33.33333333333331,182.55687207142856L49.99999999999997,187.15561535714284L66.66666666666664,182.60585371428573L83.33333333333331,180.32334635714284L99.99999999999997,178.86452885714286L116.66666666666664,170.4977034285714L133.33333333333331,170.37348514285713L149.99999999999997,169.05595042857144L166.66666666666666,169.80361164285713L183.33333333333331,174.67006100000003L199.99999999999997,165.99706992857145L216.66666666666666,163.61548228571428L233.33333333333331,155.74142035714286L250,157.01350814285715L266.66666666666663,158.17724521428573L283.33333333333337,161.79481149999998L300,168.41950242857143L316.66666666666663,169.6916517142857L333.33333333333337,169.7805322857143L350,164.95538735714285L366.66666666666663,174.62119957142858L383.33333333333337,177.2749612142857L400,176.4385017857143L416.66666666666663,187.71508485714287L433.33333333333337,186.54443607142858L450,184.9775065L466.66666666666663,185.0884605L483.33333333333337,188.33445285714288L500,190.30720607142857" stroke="#9ecae9" stroke-width="2"/></g><g class="mark-line role-mark" role="graphics-symbol" aria-roledescription="line mark container"><path d="M-2.842170943040401e-14,137.43280114285713L16.66666666666664,132.34690571428573L33.33333333333331,118.95312107142857L49.99999999999997,125.92531092857142L66.66666666666664,122.87556L83.33333333333331,127.47555235714287L99.99999999999997,117.69125364285715L116.66666666666664,100.23238549999999L133.33333333333331,105.13733764285713L149.99999999999997,98.8461395L166.66666666666666,97.24873685714286L183.33333333333331,97.07573657142856L199.99999999999997,83.49443142857143L216.66666666666666,82.73422271428572L233.33333333333331,70.86788114285716L250,68.76632800000002L266.66666666666663,62.840168571428556L283.33333333333337,62.90216985714287L300,67.76541750000003L316.66666666666663,68.1226157857143L333.33333333333337,76.61544450000002L350,64.15039478571427L366.66666666666663,73.43180207142859L383.33333333333337,73.89701785714284L400,70.00712521428571L416.66666666666663,82.37039464285714L433.33333333333337,78.40717021428571L450,73.90284178571429L466.66666666666663,71.77363028571429L483.33333333333337,76.5056254285714L500,74.77589514285714" stroke="#e45756" stroke-width="2.5"/></g></g><path class="foreground" aria-hidden="true" d="" display="none"/></g><g transform="translate(0,0)"><path class="background" aria-hidden="true" d="M0,0h0v0h0Z"/><g><g class="mark-line role-mark" role="graphics-symbol" aria-roledescription="line mark container"><path d="M-2.842170943040401e-14,123.5694312142857L16.66666666666664,115.58699078571428L33.33333333333331,98.70319985714286L49.99999999999997,107.49463285714285L66.66666666666664,102.41573957142856L83.33333333333331,109.88090721428571L99.99999999999997,96.25081171428572L116.66666666666664,70.27652835714284L133.33333333333331,80.77966828571428L149.99999999999997,73.21560914285712L166.66666666666666,64.4343782857143L183.33333333333331,66.83949014285713L199.99999999999997,45.53858592857141L216.66666666666666,48.723906214285726L233.33333333333331,42.19095771428574L250,35.41979585714283L266.66666666666663,28.854532999999982L283.33333333333337,29.942186500000023L300,35.43926778571429L316.66666666666663,35.88673385714287L333.33333333333337,38.70669485714284L350,23.90636635714285L366.66666666666663,32.57336142857146L383.33333333333337,33.97263571428573L400,28.69103071428569L416.66666666666663,40.26404135714288L433.33333333333337,31.88267242857141L450,26.28492935714286L466.66666666666663,25.004293357142828L483.33333333333337,29.34208549999997L500,22.484863142857137" stroke="#f58518" stroke-width="2"/></g><g class="mark-line role-mark" role="graphics-symbol" aria-roledescription="line mark container"><path d="M-2.842170943040401e-14,137.43280114285713L16.66666666666664,132.34690571428573L33.33333333333331,118.95312107142857L49.99999999999997,125.92531092857142L66.66666666666664,122.87556L83.33333333333331,127.47555235714287L99.99999999999997,117.69125364285715L116.66666666666664,100.23238549999999L133.33333333333331,105.13733764285713L149.99999999999997,98.8461395L166.66666666666666,97.24873685714286L183.33333333333331,97.07573657142856L199.99999999999997,83.49443142857143L216.66666666666666,82.73422271428572L233.33333333333331,70.86788114285716L250,68.76632800000002L266.66666666666663,62.840168571428556L283.33333333333337,62.90216985714287L300,67.76541750000003L316.66666666666663,68.1226157857143L333.33333333333337,76.61544450000002L350,64.15039478571427L366.66666666666663,73.43180207142859L383.33333333333337,73.89701785714284L400,70.00712521428571L416.66666666666663,82.37039464285714L433.33333333333337,78.40717021428571L450,73.90284178571429L466.66666666666663,71.77363028571429L483.33333333333337,76.5056254285714L500,74.77589514285714" stroke="#e45756" stroke-width="2.5"/></g></g><path class="foreground" aria-hidden="true" d="" display="none"/></g><g transform="translate(0,0)"><path class="background" aria-hidden="true" d="M0,0h0v0h0Z"/><g><g class="mark-line role-mark" role="graphics-symbol" aria-roledescription="line mark container"><path d="M-2.842170943040401e-14,97.03756821428571L16.66666666666664,92.31268328571429L33.33333333333331,80.52217878571429L49.99999999999997,88.17889450000003L66.66666666666664,87.39049464285713L83.33333333333331,92.38131292857142L99.99999999999997,80.63163414285717L116.66666666666664,57.47657371428572L133.33333333333331,66.42005528571427L149.99999999999997,60.41878728571428L166.66666666666666,54.19157378571431L183.33333333333331,44.10513992857143L199.99999999999997,30.543948571428594L216.66666666666666,31.67549857142855L233.33333333333331,7.321922857142837L250,13.079505785714307L266.66666666666663,6.361897071428557L283.33333333333337,6.8341484285714404L300,11.896984142857136L316.66666666666663,8.617086500000015L333.33333333333337,22.39831757142856L350,3.7565937142857164L366.66666666666663,14.344373285714296L383.33333333333337,7.658314571428604L400,7.082956785714289L416.66666666666663,17.498826071428585L433.33333333333337,17.382924785714305L450,6.292848928571448L466.66666666666663,6.353831142857125L483.33333333333337,13.607364285714297L500,7.476807714285738" stroke="#ffbf79" stroke-width="2"/></g><g class="mark-line role-mark" role="graphics-symbol" aria-roledescription="line mark container"><path d="M-2.842170943040401e-14,137.43280114285713L16.66666666666664,132.34690571428573L33.33333333333331,118.95312107142857L49.99999999999997,125.92531092857142L66.66666666666664,122.87556L83.33333333333331,127.47555235714287L99.99999999999997,117.69125364285715L116.66666666666664,100.23238549999999L133.33333333333331,105.13733764285713L149.99999999999997,98.8461395L166.66666666666666,97.24873685714286L183.33333333333331,97.07573657142856L199.99999999999997,83.49443142857143L216.66666666666666,82.73422271428572L233.33333333333331,70.86788114285716L250,68.76632800000002L266.66666666666663,62.840168571428556L283.33333333333337,62.90216985714287L300,67.76541750000003L316.66666666666663,68.1226157857143L333.33333333333337,76.61544450000002L350,64.15039478571427L366.66666666666663,73.43180207142859L383.33333333333337,73.89701785714284L400,70.00712521428571L416.66666666666663,82.37039464285714L433.33333333333337,78.40717021428571L450,73.90284178571429L466.66666666666663,71.77363028571429L483.33333333333337,76.5056254285714L500,74.77589514285714" stroke="#e45756" stroke-width="2.5"/></g></g><path class="foreground" aria-hidden="true" d="" display="none"/></g><g transform="translate(0,0)"><path class="background" aria-hidden="true" d="M0,0h0v0h0Z"/><g><g class="mark-line role-mark" role="graphics-symbol" aria-roledescription="line mark container"><path d="M-2.842170943040401e-14,110.5805235L16.66666666666664,101.61193664285713L33.33333333333331,87.84342914285715L49.99999999999997,97.29876292857142L66.66666666666664,94.86343885714285L83.33333333333331,99.53640385714284L99.99999999999997,89.35408478571429L116.66666666666664,70.57318142857143L133.33333333333331,69.71259642857144L149.99999999999997,65.91212599999999L166.66666666666666,64.97838121428572L183.33333333333331,61.335964142857115L199.99999999999997,52.040186142857166L216.66666666666666,52.00599735714286L233.33333333333331,42.986493214285716L250,32.48002721428571L266.66666666666663,25.401319071428595L283.33333333333337,21.924434571428563L300,24.178897642857144L316.66666666666663,29.759396500000012L333.33333333333337,43.02385792857142L350,25.05767464285715L366.66666666666663,29.3637932857143L383.33333333333337,34.34899964285714L400,28.76839785714287L416.66666666666663,42.77248149999999L433.33333333333337,38.95151828571428L450,31.26209207142856L466.66666666666663,27.263957714285738L483.33333333333337,28.893320214285744L500,28.353313857142858" stroke="#54a24b" stroke-width="2"/></g><g class="mark-line role-mark" role="graphics-symbol" aria-roledescription="line mark container"><path d="M-2.842170943040401e-14,137.43280114285713L16.66666666666664,132.34690571428573L33.33333333333331,118.95312107142857L49.99999999999997,125.92531092857142L66.66666666666664,122.87556L83.33333333333331,127.47555235714287L99.99999999999997,117.69125364285715L116.66666666666664,100.23238549999999L133.33333333333331,105.13733764285713L149.99999999999997,98.8461395L166.66666666666666,97.24873685714286L183.33333333333331,97.07573657142856L199.99999999999997,83.49443142857143L216.66666666666666,82.73422271428572L233.33333333333331,70.86788114285716L250,68.76632800000002L266.66666666666663,62.840168571428556L283.33333333333337,62.90216985714287L300,67.76541750000003L316.66666666666663,68.1226157857143L333.33333333333337,76.61544450000002L350,64.15039478571427L366.66666666666663,73.43180207142859L383.33333333333337,73.89701785714284L400,70.00712521428571L416.66666666666663,82.37039464285714L433.33333333333337,78.40717021428571L450,73.90284178571429L466.66666666666663,71.77363028571429L483.33333333333337,76.5056254285714L500,74.77589514285714" stroke="#e45756" stroke-width="2.5"/></g></g><path class="foreground" aria-hidden="true" d="" display="none"/></g><g transform="translate(0,0)"><path class="background" aria-hidden="true" d="M0,0h0v0h0Z"/><g><g class="mark-line role-mark" role="graphics-symbol" aria-roledescription="line mark container"><path d="M-2.842170943040401e-14,153.39497307142858L16.66666666666664,149.88441635714284L33.33333333333331,142.1214007857143L49.99999999999997,150.17692742857142L66.66666666666664,142.0487745L83.33333333333331,148.36263599999998L99.99999999999997,136.60960485714284L116.66666666666664,124.27116964285713L133.33333333333331,126.71675300000001L149.99999999999997,118.15441292857143L166.66666666666666,128.59697371428572L183.33333333333331,124.006573L199.99999999999997,113.15543685714285L216.66666666666666,108.25318071428572L233.33333333333331,96.01769157142857L250,93.55013935714285L266.66666666666663,83.44519121428571L283.33333333333337,85.59084942857143L300,89.57968892857144L316.66666666666663,91.96163650000003L333.33333333333337,103.9218692142857L350,94.74285L366.66666666666663,106.87339207142857L383.33333333333337,99.51986428571429L400,93.85516435714287L416.66666666666663,103.95356228571428L433.33333333333337,96.17337692857141L450,99.83425021428572L466.66666666666663,92.9959827857143L483.33333333333337,101.27388742857141L500,99.8269707857143" stroke="#88d27a" stroke-width="2"/></g><g class="mark-line role-mark" role="graphics-symbol" aria-roledescription="line mark container"><path d="M-2.842170943040401e-14,137.43280114285713L16.66666666666664,132.34690571428573L33.33333333333331,118.95312107142857L49.99999999999997,125.92531092857142L66.66666666666664,122.87556L83.33333333333331,127.47555235714287L99.99999999999997,117.69125364285715L116.66666666666664,100.23238549999999L133.33333333333331,105.13733764285713L149.99999999999997,98.8461395L166.66666666666666,97.24873685714286L183.33333333333331,97.07573657142856L199.99999999999997,83.49443142857143L216.66666666666666,82.73422271428572L233.33333333333331,70.86788114285716L250,68.76632800000002L266.66666666666663,62.840168571428556L283.33333333333337,62.90216985714287L300,67.76541750000003L316.66666666666663,68.1226157857143L333.33333333333337,76.61544450000002L350,64.15039478571427L366.66666666666663,73.43180207142859L383.33333333333337,73.89701785714284L400,70.00712521428571L416.66666666666663,82.37039464285714L433.33333333333337,78.40717021428571L450,73.90284178571429L466.66666666666663,71.77363028571429L483.33333333333337,76.5056254285714L500,74.77589514285714" stroke="#e45756" stroke-width="2.5"/></g></g><path class="foreground" aria-hidden="true" d="" display="none"/></g><g transform="translate(0,0)"><path class="background" aria-hidden="true" d="M0,0h0v0h0Z"/><g><g class="mark-line role-mark" role="graphics-symbol" aria-roledescription="line mark container"><path d="M-2.842170943040401e-14,127.31952264285712L16.66666666666664,119.51281635714288L33.33333333333331,103.17732228571428L49.99999999999997,108.01806685714286L66.66666666666664,107.94448421428572L83.33333333333331,116.09373364285713L99.99999999999997,106.0511077857143L116.66666666666664,98.2740437142857L133.33333333333331,100.70458321428572L149.99999999999997,83.43124435714286L166.66666666666666,78.69730928571428L183.33333333333331,84.73138764285713L199.99999999999997,64.05109814285714L216.66666666666666,63.05908835714285L233.33333333333331,42.82515435714289L250,43.964476428571444L266.66666666666663,33.63421957142856L283.33333333333337,23.280639928571432L300,28.10313992857145L316.66666666666663,21.87880642857141L333.33333333333337,42.29264999999997L350,29.75817064285713L366.66666666666663,36.89602107142855L383.33333333333337,40.879420999999994L400,23.705368142857132L416.66666666666663,40.55300314285715L433.33333333333337,33.44374828571428L450,28.734072785714314L466.66666666666663,19.625045642857163L483.33333333333337,21.748886071428576L500,25.483010357142845" stroke="#b79a20" stroke-width="2"/></g><g class="mark-line role-mark" role="graphics-symbol" aria-roledescription="line mark container"><path d="M-2.842170943040401e-14,137.43280114285713L16.66666666666664,132.34690571428573L33.33333333333331,118.95312107142857L49.99999999999997,125.92531092857142L66.66666666666664,122.87556L83.33333333333331,127.47555235714287L99.99999999999997,117.69125364285715L116.66666666666664,100.23238549999999L133.33333333333331,105.13733764285713L149.99999999999997,98.8461395L166.66666666666666,97.24873685714286L183.33333333333331,97.07573657142856L199.99999999999997,83.49443142857143L216.66666666666666,82.73422271428572L233.33333333333331,70.86788114285716L250,68.76632800000002L266.66666666666663,62.840168571428556L283.33333333333337,62.90216985714287L300,67.76541750000003L316.66666666666663,68.1226157857143L333.33333333333337,76.61544450000002L350,64.15039478571427L366.66666666666663,73.43180207142859L383.33333333333337,73.89701785714284L400,70.00712521428571L416.66666666666663,82.37039464285714L433.33333333333337,78.40717021428571L450,73.90284178571429L466.66666666666663,71.77363028571429L483.33333333333337,76.5056254285714L500,74.77589514285714" stroke="#e45756" stroke-width="2.5"/></g></g><path class="foreground" aria-hidden="true" d="" display="none"/></g><g transform="translate(0,0)"><path class="background" aria-hidden="true" d="M0,0h0v0h0Z"/><g><g class="mark-line role-mark" role="graphics-symbol" aria-roledescription="line mark container"><path d="M-2.842170943040401e-14,135.64272178571426L16.66666666666664,133.948852L33.33333333333331,124.11589957142857L49.99999999999997,128.12388207142854L66.66666666666664,125.6364595L83.33333333333331,132.66896671428572L99.99999999999997,122.07754692857142L116.66666666666664,105.87386350000001L133.33333333333331,112.14515635714287L149.99999999999997,103.18591857142859L166.66666666666666,108.19173035714287L183.33333333333331,113.45584128571429L199.99999999999997,98.32832114285715L216.66666666666666,88.8746702857143L233.33333333333331,77.9124717142857L250,73.57821428571427L266.66666666666663,57.637709142857155L283.33333333333337,59.816403785714286L300,63.44630750000002L316.66666666666663,61.6330185714286L333.33333333333337,75.06978171428568L350,65.31743014285712L366.66666666666663,80.03448850000001L383.33333333333337,82.11863314285712L400,75.93190749999998L416.66666666666663,92.33272121428573L433.33333333333337,88.83473357142854L450,87.15260564285714L466.66666666666663,86.55297335714287L483.33333333333337,92.98457435714285L500,95.49194307142857" stroke="#f2cf5b" stroke-width="2"/></g><g class="mark-line role-mark" role="graphics-symbol" aria-roledescription="line mark container"><path d="M-2.842170943040401e-14,137.43280114285713L16.66666666666664,132.34690571428573L33.33333333333331,118.95312107142857L49.99999999999997,125.92531092857142L66.66666666666664,122.87556L83.33333333333331,127.47555235714287L99.99999999999997,117.69125364285715L116.66666666666664,100.23238549999999L133.33333333333331,105.13733764285713L149.99999999999997,98.8461395L166.66666666666666,97.24873685714286L183.33333333333331,97.07573657142856L199.99999999999997,83.49443142857143L216.66666666666666,82.73422271428572L233.33333333333331,70.86788114285716L250,68.76632800000002L266.66666666666663,62.840168571428556L283.33333333333337,62.90216985714287L300,67.76541750000003L316.66666666666663,68.1226157857143L333.33333333333337,76.61544450000002L350,64.15039478571427L366.66666666666663,73.43180207142859L383.33333333333337,73.89701785714284L400,70.00712521428571L416.66666666666663,82.37039464285714L433.33333333333337,78.40717021428571L450,73.90284178571429L466.66666666666663,71.77363028571429L483.33333333333337,76.5056254285714L500,74.77589514285714" stroke="#e45756" stroke-width="2.5"/></g></g><path class="foreground" aria-hidden="true" d="" display="none"/></g><g transform="translate(0,0)"><path class="background" aria-hidden="true" d="M0,0h0v0h0Z"/><g><g class="mark-line role-mark" role="graphics-symbol" aria-roledescription="line mark container"><path d="M-2.842170943040401e-14,150.00597157142857L16.66666666666664,144.98280764285713L33.33333333333331,133.58848971428569L49.99999999999997,136.85243599999998L66.66666666666664,143.67737957142856L83.33333333333331,149.6702845L99.99999999999997,136.75831835714285L116.66666666666664,119.88989914285715L133.33333333333331,131.87707628571428L149.99999999999997,124.2431407857143L166.66666666666666,129.81147457142856L183.33333333333331,134.39160292857144L199.99999999999997,125.52653814285715L216.66666666666666,123.58160514285714L233.33333333333331,116.03415199999998L250,113.34403485714286L266.66666666666663,107.83146885714285L283.33333333333337,109.56682842857144L300,113.42426950000002L316.66666666666663,112.4732265L333.33333333333337,118.04561114285713L350,104.69973285714285L366.66666666666663,121.05535428571427L383.33333333333337,116.20100635714286L400,114.48896350000001L416.66666666666663,128.68455671428572L433.33333333333337,123.07538521428572L450,120.97324878571429L466.66666666666663,115.58792214285714L483.33333333333337,119.86563100000001L500,116.90079285714287" stroke="#439894" stroke-width="2"/></g><g class="mark-line role-mark" role="graphics-symbol" aria-roledescription="line mark container"><path d="M-2.842170943040401e-14,137.43280114285713L16.66666666666664,132.34690571428573L33.33333333333331,118.95312107142857L49.99999999999997,125.92531092857142L66.66666666666664,122.87556L83.33333333333331,127.47555235714287L99.99999999999997,117.69125364285715L116.66666666666664,100.23238549999999L133.33333333333331,105.13733764285713L149.99999999999997,98.8461395L166.66666666666666,97.24873685714286L183.33333333333331,97.07573657142856L199.99999999999997,83.49443142857143L216.66666666666666,82.73422271428572L233.33333333333331,70.86788114285716L250,68.76632800000002L266.66666666666663,62.840168571428556L283.33333333333337,62.90216985714287L300,67.76541750000003L316.66666666666663,68.1226157857143L333.33333333333337,76.61544450000002L350,64.15039478571427L366.66666666666663,73.43180207142859L383.33333333333337,73.89701785714284L400,70.00712521428571L416.66666666666663,82.37039464285714L433.33333333333337,78.40717021428571L450,73.90284178571429L466.66666666666663,71.77363028571429L483.33333333333337,76.5056254285714L500,74.77589514285714" stroke="#e45756" stroke-width="2.5"/></g></g><path class="foreground" aria-hidden="true" d="" display="none"/></g><g transform="translate(0,0)"><path class="background" aria-hidden="true" d="M0,0h0v0h0Z"/><g><g class="mark-line role-mark" role="graphics-symbol" aria-roledescription="line mark container"><path d="M-2.842170943040401e-14,173.3151472142857L16.66666666666664,165.79844485714287L33.33333333333331,146.84473807142857L49.99999999999997,154.91913307142858L66.66666666666664,149.08868028571428L83.33333333333331,158.6781232142857L99.99999999999997,146.44360635714287L116.66666666666664,123.21129621428572L133.33333333333331,129.87654471428573L149.99999999999997,125.02620399999999L166.66666666666666,125.1403455L183.33333333333331,127.11281957142857L199.99999999999997,111.28773335714286L216.66666666666666,108.00247321428571L233.33333333333331,99.95980142857144L250,95.98444350000001L266.66666666666663,93.87927264285712L283.33333333333337,87.9637737142857L300,92.25999850000002L316.66666666666663,94.03387157142855L333.33333333333337,96.97861521428572L350,90.03041178571429L366.66666666666663,88.74469178571427L383.33333333333337,95.96770664285714L400,96.4168772142857L416.66666666666663,102.7489527857143L433.33333333333337,93.85284999999999L450,87.97300607142856L466.66666666666663,84.38399200000002L483.33333333333337,93.90883414285713L500,94.431927" stroke="#83bcb6" stroke-width="2"/></g><g class="mark-line role-mark" role="graphics-symbol" aria-roledescription="line mark container"><path d="M-2.842170943040401e-14,137.43280114285713L16.66666666666664,132.34690571428573L33.33333333333331,118.95312107142857L49.99999999999997,125.92531092857142L66.66666666666664,122.87556L83.33333333333331,127.47555235714287L99.99999999999997,117.69125364285715L116.66666666666664,100.23238549999999L133.33333333333331,105.13733764285713L149.99999999999997,98.8461395L166.66666666666666,97.24873685714286L183.33333333333331,97.07573657142856L199.99999999999997,83.49443142857143L216.66666666666666,82.73422271428572L233.33333333333331,70.86788114285716L250,68.76632800000002L266.66666666666663,62.840168571428556L283.33333333333337,62.90216985714287L300,67.76541750000003L316.66666666666663,68.1226157857143L333.33333333333337,76.61544450000002L350,64.15039478571427L366.66666666666663,73.43180207142859L383.33333333333337,73.89701785714284L400,70.00712521428571L416.66666666666663,82.37039464285714L433.33333333333337,78.40717021428571L450,73.90284178571429L466.66666666666663,71.77363028571429L483.33333333333337,76.5056254285714L500,74.77589514285714" stroke="#e45756" stroke-width="2.5"/></g></g><path class="foreground" aria-hidden="true" d="" display="none"/></g></g><g class="mark-group role-legend" role="graphics-symbol" aria-roledescription="legend" aria-label="Symbol legend for fill color with 10 values: (Average), Vienna, Lower Austria, Upper Austria, Styria, ending with Burgenland"><g transform="translate(521,0)"><path class="background" aria-hidden="true" d="M0,0h79v128h-79Z" pointer-events="none"/><g><g class="mark-group role-legend-entry"><g transform="translate(0,0)"><path class="background" aria-hidden="true" d="M0,0h0v0h0Z" pointer-events="none"/><g><g class="mark-group role-scope" role="graphics-object" aria-roledescription="group mark container"><g transform="translate(0,0)"><path class="background" aria-hidden="true" d="M0,0h79v11h-79Z" pointer-events="none" opacity="1"/><g><g class="mark-symbol role-legend-symbol" pointer-events="none"><path transform="translate(6,6)" d="M5,0A5,5,0,1,1,-5,0A5,5,0,1,1,5,0" fill="#e45756" stroke-width="1.5" opacity="1"/></g><g class="mark-text role-legend-label" pointer-events="none"><text text-anchor="start" transform="translate(16,9)" font-family="sans-serif" font-size="10px" fill="#000" opacity="1">(Average)</text></g></g><path class="foreground" aria-hidden="true" d="" pointer-events="none" display="none"/></g><g transform="translate(0,13)"><path class="background" aria-hidden="true" d="M0,0h79v11h-79Z" pointer-events="none" opacity="1"/><g><g class="mark-symbol role-legend-symbol" pointer-events="none"><path transform="translate(6,6)" d="M5,0A5,5,0,1,1,-5,0A5,5,0,1,1,5,0" fill="#9ecae9" stroke-width="1.5" opacity="1"/></g><g class="mark-text role-legend-label" pointer-events="none"><text text-anchor="start" transform="translate(16,9)" font-family="sans-serif" font-size="10px" fill="#000" opacity="1">Vienna</text></g></g><path class="foreground" aria-hidden="true" d="" pointer-events="none" display="none"/></g><g transform="translate(0,26)"><path class="background" aria-hidden="true" d="M0,0h79v11h-79Z" pointer-events="none" opacity="1"/><g><g class="mark-symbol role-legend-symbol" pointer-events="none"><path transform="translate(6,6)" d="M5,0A5,5,0,1,1,-5,0A5,5,0,1,1,5,0" fill="#f58518" stroke-width="1.5" opacity="1"/></g><g class="mark-text role-legend-label" pointer-events="none"><text text-anchor="start" transform="translate(16,9)" font-family="sans-serif" font-size="10px" fill="#000" opacity="1">Lower Austria</text></g></g><path class="foreground" aria-hidden="true" d="" pointer-events="none" display="none"/></g><g transform="translate(0,39)"><path class="background" aria-hidden="true" d="M0,0h79v11h-79Z" pointer-events="none" opacity="1"/><g><g class="mark-symbol role-legend-symbol" pointer-events="none"><path transform="translate(6,6)" d="M5,0A5,5,0,1,1,-5,0A5,5,0,1,1,5,0" fill="#ffbf79" stroke-width="1.5" opacity="1"/></g><g class="mark-text role-legend-label" pointer-events="none"><text text-anchor="start" transform="translate(16,9)" font-family="sans-serif" font-size="10px" fill="#000" opacity="1">Upper Austria</text></g></g><path class="foreground" aria-hidden="true" d="" pointer-events="none" display="none"/></g><g transform="translate(0,52)"><path class="background" aria-hidden="true" d="M0,0h79v11h-79Z" pointer-events="none" opacity="1"/><g><g class="mark-symbol role-legend-symbol" pointer-events="none"><path transform="translate(6,6)" d="M5,0A5,5,0,1,1,-5,0A5,5,0,1,1,5,0" fill="#54a24b" stroke-width="1.5" opacity="1"/></g><g class="mark-text role-legend-label" pointer-events="none"><text text-anchor="start" transform="translate(16,9)" font-family="sans-serif" font-size="10px" fill="#000" opacity="1">Styria</text></g></g><path class="foreground" aria-hidden="true" d="" pointer-events="none" display="none"/></g><g transform="translate(0,65)"><path class="background" aria-hidden="true" d="M0,0h79v11h-79Z" pointer-events="none" opacity="1"/><g><g class="mark-symbol role-legend-symbol" pointer-events="none"><path transform="translate(6,6)" d="M5,0A5,5,0,1,1,-5,0A5,5,0,1,1,5,0" fill="#88d27a" stroke-width="1.5" opacity="1"/></g><g class="mark-text role-legend-label" pointer-events="none"><text text-anchor="start" transform="translate(16,9)" font-family="sans-serif" font-size="10px" fill="#000" opacity="1">Tyrol</text></g></g><path class="foreground" aria-hidden="true" d="" pointer-events="none" display="none"/></g><g transform="translate(0,78)"><path class="background" aria-hidden="true" d="M0,0h79v11h-79Z" pointer-events="none" opacity="1"/><g><g class="mark-symbol role-legend-symbol" pointer-events="none"><path transform="translate(6,6)" d="M5,0A5,5,0,1,1,-5,0A5,5,0,1,1,5,0" fill="#b79a20" stroke-width="1.5" opacity="1"/></g><g class="mark-text role-legend-label" pointer-events="none"><text text-anchor="start" transform="translate(16,9)" font-family="sans-serif" font-size="10px" fill="#000" opacity="1">Carinthia</text></g></g><path class="foreground" aria-hidden="true" d="" pointer-events="none" display="none"/></g><g transform="translate(0,91)"><path class="background" aria-hidden="true" d="M0,0h79v11h-79Z" pointer-events="none" opacity="1"/><g><g class="mark-symbol role-legend-symbol" pointer-events="none"><path transform="translate(6,6)" d="M5,0A5,5,0,1,1,-5,0A5,5,0,1,1,5,0" fill="#f2cf5b" stroke-width="1.5" opacity="1"/></g><g class="mark-text role-legend-label" pointer-events="none"><text text-anchor="start" transform="translate(16,9)" font-family="sans-serif" font-size="10px" fill="#000" opacity="1">Salzburg</text></g></g><path class="foreground" aria-hidden="true" d="" pointer-events="none" display="none"/></g><g transform="translate(0,104)"><path class="background" aria-hidden="true" d="M0,0h79v11h-79Z" pointer-events="none" opacity="1"/><g><g class="mark-symbol role-legend-symbol" pointer-events="none"><path transform="translate(6,6)" d="M5,0A5,5,0,1,1,-5,0A5,5,0,1,1,5,0" fill="#439894" stroke-width="1.5" opacity="1"/></g><g class="mark-text role-legend-label" pointer-events="none"><text text-anchor="start" transform="translate(16,9)" font-family="sans-serif" font-size="10px" fill="#000" opacity="1">Vorarlberg</text></g></g><path class="foreground" aria-hidden="true" d="" pointer-events="none" display="none"/></g><g transform="translate(0,117)"><path class="background" aria-hidden="true" d="M0,0h79v11h-79Z" pointer-events="none" opacity="1"/><g><g class="mark-symbol role-legend-symbol" pointer-events="none"><path transform="translate(6,6)" d="M5,0A5,5,0,1,1,-5,0A5,5,0,1,1,5,0" fill="#83bcb6" stroke-width="1.5" opacity="1"/></g><g class="mark-text role-legend-label" pointer-events="none"><text text-anchor="start" transform="translate(16,9)" font-family="sans-serif" font-size="10px" fill="#000" opacity="1">Burgenland</text></g></g><path class="foreground" aria-hidden="true" d="" pointer-events="none" display="none"/></g></g></g><path class="foreground" aria-hidden="true" d="" pointer-events="none" display="none"/></g></g></g><path class="foreground" aria-hidden="true" d="" pointer-events="none" display="none"/></g></g></g><path class="foreground" aria-hidden="true" d="" display="none"/></g></g></g></svg>